<svg id="Layer_1" data-name="Layer 1" xmlns="http://www.w3.org/2000/svg" viewBox="0 0 356.22 149.25"><defs><style>.cls-1{fill:#1a73e8;}.cls-2{fill:#282c33;}</style></defs><title>logo-simple</title><path class="cls-1" d="M11.66,115.38v6.35c0,10.3,3.58,15.85,11.22,15.85,7.84,0,11-5.67,11-17.7,0-12.83-2.83-17.83-14.37-26.83C7.77,83.86,1.85,78.37,1.85,62.2,1.85,48.32,6,35,23.19,35.06c16.29.13,20.61,11,20.61,24.86V65H32.2V60.23c0-9.13-1.79-15-9.25-15s-9.44,6.6-9.44,15.24c0,10.17,2,14.06,12.09,21.65,15.24,11.47,20,17.89,20,36.08,0,15.42-4.38,29.43-22.89,29.43C5,147.7,0,136.1,0,121.67v-6.29Z"/><path class="cls-1" d="M103.75,63.56v55.27c0,19.25-8,28.93-24.24,28.93-17,0-23.19-10.79-23.19-28.74V63.56c0-18.63,8.45-28.37,24-28.37C96.47,35.12,103.75,46.23,103.75,63.56ZM68.22,63v56.87c0,12.34,4.51,17.21,11.85,17.21,7.77,0,11.84-4.75,11.84-17.77V63c0-11.66-4-17.21-11.91-17.21S68.22,51,68.22,63Z"/><path class="cls-2" d="M123.42,116.26v6.48c0,10.54,3.64,16.17,11.48,16.17,8,0,11.18-5.8,11.18-18.06,0-13.09-2.88-18.18-14.66-27.36-12-9.36-18-15-18-31.5,0-14.18,4.25-27.78,21.81-27.69,16.65.1,21,11.18,21,25.39v5.19H144.4V60c0-9.29-1.81-15.29-9.47-15.29s-9.65,6.73-9.65,15.5c0,10.4,2.07,14.34,12.33,22.11,15.53,11.74,20.45,18.29,20.45,36.86,0,15.73-4.49,30.06-23.37,30.06-18.06,0-23.18-11.83-23.18-26.57v-6.42Z"/><path class="cls-2" d="M182.1,35.87V147.76H170.19V35.87Z"/><path class="cls-2" d="M198.67,35.87h39v11H210.57V83.32h25.51v11H210.57v53.42h-11.9Z"/><path class="cls-2" d="M294.32,63.36v56.38c0,19.66-8.11,29.51-24.78,29.51-17.33,0-23.66-11-23.66-29.35V63.37c0-19,8.65-29,24.47-29C286.89,34.38,294.32,45.68,294.32,63.36ZM258,62.81v58.06c0,12.58,4.57,17.59,12.08,17.59,7.91,0,12.06-4.86,12.06-18.12V62.82c0-11.87-4.09-17.57-12.16-17.57S258,50.63,258,62.81Z"/><path class="cls-2" d="M308.7,35.87H329c24.16,0,27.22,14.94,27.22,32.71v44.19c0,17.17-2.65,35-28,35H308.7Zm11.91,101.55h6.74c13.56,0,16.72-7.66,16.72-22.31v-48c0-12.93-2.31-20.86-16.61-20.86h-6.85Z"/><circle class="cls-1" cx="175.99" cy="18.43" r="18.43"/></svg>