<svg id="Layer_1" data-name="Layer 1" xmlns="http://www.w3.org/2000/svg" viewBox="0 0 377.22 78.29"><defs><style>.cls-1{fill:#282c33;}.cls-2{fill:#f96b13;}</style></defs><title>logo-simple</title><path class="cls-1" d="M111.17,18.05h22.14l-5.12,25.67A9.84,9.84,0,0,1,125.45,49a7.16,7.16,0,0,1-5.07,1.86q-5.58,0-10-6.14l-14,13.3q7.26,10,23.63,10,12.74,0,20.09-6t10.05-19.72l8.18-40.93H114.52Z"/><path class="cls-1" d="M217.45,3.67A39.28,39.28,0,0,0,200,0a44.6,44.6,0,0,0-21.16,4.93,36.18,36.18,0,0,0-14.61,13.82A38.89,38.89,0,0,0,159,39,28.41,28.41,0,0,0,163,54.14a27.15,27.15,0,0,0,11.54,10.28A39.11,39.11,0,0,0,192,68.1a44.75,44.75,0,0,0,21.16-4.93,36.37,36.37,0,0,0,14.61-13.82A39,39,0,0,0,233,29.12,28.53,28.53,0,0,0,229,14,27.34,27.34,0,0,0,217.45,3.67Zm-8.6,36.7a17.37,17.37,0,0,1-5.91,7.26,15.44,15.44,0,0,1-9.07,2.7q-6,0-9.35-3.44a12.58,12.58,0,0,1-3.4-9.21,24.12,24.12,0,0,1,2-10,17.19,17.19,0,0,1,5.91-7.25,15.4,15.4,0,0,1,9.07-2.7q6,0,9.35,3.44a12.57,12.57,0,0,1,3.39,9.21A24,24,0,0,1,208.85,40.37Z"/><path class="cls-1" d="M284.2,32.28,280.76,49.4a22.06,22.06,0,0,1-6.42.93q-6.7,0-10.52-3.49A12,12,0,0,1,260,37.58a22.5,22.5,0,0,1,2.28-10.28,16.8,16.8,0,0,1,6.51-7,19.11,19.11,0,0,1,9.91-2.51A19.57,19.57,0,0,1,287,19.4a18.3,18.3,0,0,1,6.6,5.53l15.72-12.19Q300,0,279.73,0A46.19,46.19,0,0,0,258,5a36.85,36.85,0,0,0-14.79,13.81A38.51,38.51,0,0,0,237.87,39a27.18,27.18,0,0,0,15.86,25.44,39.74,39.74,0,0,0,17.54,3.68,50.79,50.79,0,0,0,14.46-2,40.15,40.15,0,0,0,12-5.72l5.58-28.1Z"/><path class="cls-1" d="M361.78,1.49H340.2L298.71,66.61h23.16l6.52-11.35h24.83l2.14,11.35h21.86ZM337.41,39.44,347,22.79l3.16,16.65Z"/><path class="cls-1" d="M50.47,29.3a83.37,83.37,0,0,0-10.65-3.16,44.37,44.37,0,0,1-7.49-2.23q-2.28-1-2.28-2.79c0-1.18.84-2.2,2.51-3.07a15.58,15.58,0,0,1,7.07-1.3A37.3,37.3,0,0,1,49.07,18a29.84,29.84,0,0,1,8.42,3.63l7.91-16A37.69,37.69,0,0,0,54.56,1.44,60.53,60.53,0,0,0,41,0,46.66,46.66,0,0,0,23.44,3a25.21,25.21,0,0,0-11.39,8.56,21.58,21.58,0,0,0-4,12.89,13.62,13.62,0,0,0,3.21,9.44,20,20,0,0,0,7.49,5.3,88.85,88.85,0,0,0,10.79,3.4,45.2,45.2,0,0,1,7.21,2.23q2.28,1,2.28,2.7c0,1.18-.74,2.11-2.23,2.79a16,16,0,0,1-6.42,1,43.29,43.29,0,0,1-22-6.05L0,61.49a42.63,42.63,0,0,0,12.28,4.79A67,67,0,0,0,28.19,68.1a46.23,46.23,0,0,0,17.49-3,25.64,25.64,0,0,0,11.44-8.51,21.11,21.11,0,0,0,4-12.74A13.48,13.48,0,0,0,58,34.51,19.42,19.42,0,0,0,50.47,29.3Z"/><polygon class="cls-1" points="63.44 66.61 85.4 66.61 98.42 1.49 76.47 1.49 63.44 66.61"/><rect class="cls-2" y="73.74" width="377.22" height="4.55"/></svg>